<svg width="124" height="83" viewBox="0 0 124 83" fill="none" xmlns="http://www.w3.org/2000/svg">
<path d="M0.5 9.5V74C0.5 78.9706 4.52944 83 9.5 83H114.5C119.471 83 123.5 78.9706 123.5 74V9.5C123.5 4.52944 119.471 0.5 114.5 0.5H9.5C4.52944 0.5 0.5 4.52944 0.5 9.5Z" fill="#FFA359"/>
<path d="M57.0864 48.7981L12.9333 20.0262C11.3558 18.9983 10.9969 16.84 12.1568 15.3568C13.1952 14.0291 15.0594 13.7135 16.4585 14.6536C25.9591 21.0374 59.852 43.7504 62 44.3279C64.1485 44.9055 98.0542 21.3534 107.547 14.7184C108.936 13.7476 110.819 14.0475 111.863 15.3824C113.012 16.8518 112.657 18.9901 111.094 20.0085L66.9136 48.7981C63.9269 50.7443 60.0731 50.7443 57.0864 48.7981Z" fill="white"/>
<path d="M92.1739 40.9052L113.758 62.9102C114.476 63.6431 114.666 64.7444 114.235 65.6757C113.514 67.2315 111.465 67.5958 110.252 66.3838L88.4467 44.5982C87.5649 43.7172 87.4247 42.3373 88.1114 41.297C89.0318 39.9026 91.0039 39.7124 92.1739 40.9052Z" fill="white"/>
<path d="M30.9988 40.8249L8.36536 63.6817C7.60011 64.4545 7.39891 65.6229 7.86163 66.6071C8.62285 68.2263 10.7571 68.605 12.0289 67.3465L34.8937 44.7212C35.8316 43.7931 35.9797 42.3302 35.2467 41.233C34.2787 39.7838 32.2251 39.5865 30.9988 40.8249Z" fill="white"/>
</svg>
