<svg width="124" height="96" viewBox="0 0 124 96" fill="none" xmlns="http://www.w3.org/2000/svg">
<path d="M57.1869 11C58.1304 14.6092 61.6869 17 61.6869 17C61.6869 17 65.2435 14.6092 66.187 11C67.4747 6.07372 61.6869 0 61.6869 0C61.6869 0 55.8992 6.07372 57.1869 11Z" fill="#FFA359"/>
<path d="M76.1869 11C77.1304 14.6092 80.6869 17 80.6869 17C80.6869 17 84.2435 14.6092 85.187 11C86.4747 6.07372 80.6869 0 80.6869 0C80.6869 0 74.8992 6.07372 76.1869 11Z" fill="#FFA359"/>
<path d="M95.1869 11C96.1304 14.6092 99.6869 17 99.6869 17C99.6869 17 103.243 14.6092 104.187 11C105.475 6.07372 99.6869 0 99.6869 0C99.6869 0 93.8992 6.07372 95.1869 11Z" fill="#FFA359"/>
<path d="M38.1869 11C39.1304 14.6092 42.6869 17 42.6869 17C42.6869 17 46.2435 14.6092 47.187 11C48.4747 6.07372 42.6869 0 42.6869 0C42.6869 0 36.8992 6.07372 38.1869 11Z" fill="#FFA359"/>
<path d="M19.1869 11C20.1304 14.6092 23.6869 17 23.6869 17C23.6869 17 27.2435 14.6092 28.187 11C29.4747 6.07372 23.6869 0 23.6869 0C23.6869 0 17.8992 6.07372 19.1869 11Z" fill="#FFA359"/>
<rect y="58" width="124" height="38" rx="7" fill="#FFA359"/>
<path d="M0 38C0 34.134 3.13401 31 7 31H117C120.866 31 124 34.134 124 38V45C124 48.866 120.852 52 116.986 52C75.1352 52 48.8648 52 7.01375 52C3.14776 52 0 48.866 0 45V38Z" fill="#FFA359"/>
<path d="M61.5 11C63.433 11 65 12.567 65 14.5L65 34.5C65 36.433 63.433 38 61.5 38V38C59.567 38 58 36.433 58 34.5L58 14.5C58 12.567 59.567 11 61.5 11V11Z" fill="#FFA359"/>
<path d="M80.5 11C82.433 11 84 12.567 84 14.5L84 34.5C84 36.433 82.433 38 80.5 38V38C78.567 38 77 36.433 77 34.5L77 14.5C77 12.567 78.567 11 80.5 11V11Z" fill="#FFA359"/>
<path d="M99.5 11C101.433 11 103 12.567 103 14.5L103 34.5C103 36.433 101.433 38 99.5 38V38C97.567 38 96 36.433 96 34.5L96 14.5C96 12.567 97.567 11 99.5 11V11Z" fill="#FFA359"/>
<path d="M23.5 11C25.433 11 27 12.567 27 14.5L27 34.5C27 36.433 25.433 38 23.5 38V38C21.567 38 20 36.433 20 34.5L20 14.5C20 12.567 21.567 11 23.5 11V11Z" fill="#FFA359"/>
<path d="M42.5 11C44.433 11 46 12.567 46 14.5L46 34.5C46 36.433 44.433 38 42.5 38V38C40.567 38 39 36.433 39 34.5L39 14.5C39 12.567 40.567 11 42.5 11V11Z" fill="#FFA359"/>
</svg>
