<svg width="142" height="107" viewBox="0 0 142 107" fill="none" xmlns="http://www.w3.org/2000/svg">
<path fill-rule="evenodd" clip-rule="evenodd" d="M5.20582 23.783L4.9268 24.5979L0.881213 36.4146L12.2905 40.3207L7.16896 55.2802C6.45341 57.3702 7.56766 59.6446 9.6577 60.3601L16.0602 62.5521L12.8917 71.8069C12.1762 73.8969 13.2904 76.1713 15.3805 76.8869L19.6285 78.3412C21.7185 79.0568 23.9929 77.9425 24.7085 75.8525L34.2941 47.8539L103.972 71.7089L94.3865 99.7075C93.6709 101.798 94.7852 104.072 96.8752 104.787L100.308 105.963C102.398 106.678 104.673 105.564 105.388 103.474L108.557 94.2193L114.959 96.4112C117.049 97.1268 119.324 96.0125 120.039 93.9225L125.161 78.963L137.385 83.1481L137.664 82.3332L141.431 71.3314L141.71 70.5164L130.3 66.6104L135.422 51.6509C136.137 49.5609 135.023 47.2865 132.933 46.571L126.531 44.379L129.699 35.1242C130.415 33.0342 129.3 30.7598 127.21 30.0442L122.962 28.5899C120.872 27.8743 118.598 28.9886 117.882 31.0786L108.297 59.0772L38.6187 35.2222L48.2043 7.22361C48.9198 5.13356 47.8056 2.85918 45.7155 2.14363L42.2825 0.968281C40.1924 0.252733 37.918 1.36698 37.2025 3.45703L34.034 12.7118L27.6315 10.5199C25.5415 9.80432 23.2671 10.9186 22.5515 13.0086L17.43 27.968L5.20582 23.783Z" fill="#FF9F57"/>
</svg>
