<svg width="95" height="96" viewBox="0 0 95 96" fill="none" xmlns="http://www.w3.org/2000/svg">
<circle cx="47.5" cy="47.5" r="44.5" stroke="#FFA359" stroke-width="6"/>
<path d="M47.5 5C32.5541 20.8674 25.7068 27.7368 25 48C24.9623 64.9498 29.4975 73.9708 47.5 91M47.5 5C62.3294 21.7264 68.1915 29.0013 69 48C68.4141 70.6411 61.7307 78.2352 47.5 91M47.5 5V26.5M47.5 91V66.5M47.5 26.5C32.6867 25.5912 26.2845 22.7495 18.5 14M47.5 26.5C62.3093 25.9913 69.0499 23.6287 77 14M47.5 26.5V66.5M47.5 66.5C33.2017 67.5017 26.9932 70.7787 18.5 80.5M47.5 66.5C62.895 67.7369 69.3806 70.7731 77 80.5" stroke="#FFA359" stroke-width="6"/>
<path d="M3.5 48H91.5" stroke="#FFA359" stroke-width="6"/>
</svg>
