<svg width="151" height="164" viewBox="0 0 151 164" fill="none" xmlns="http://www.w3.org/2000/svg">
<path fill-rule="evenodd" clip-rule="evenodd" d="M40.9498 117.263L22.947 139.212L25.2624 142.426L25.2018 142.5L25.3743 142.582L25.4999 142.756L25.5679 142.673L29.3406 144.458L47.3433 122.509C59.2897 107.944 68.5425 106.248 78.4856 104.426C89.5648 102.395 101.501 100.208 118.976 79.8847C150.023 43.7764 128.569 23.2219 125.712 20.7518L125.715 20.7485C125.715 20.7485 125.65 20.6925 125.523 20.5914C125.449 20.5302 125.41 20.4995 125.41 20.4995L125.408 20.5012C122.427 18.183 98.0725 1.16502 68.7361 38.6764C52.2243 59.7894 52.4143 71.9229 52.5906 83.1852C52.7489 93.2927 52.8961 102.698 40.9498 117.263ZM78.6943 95.1669C76.4842 95.1203 74.387 94.7683 72.4499 94.0941L74.9268 91.0742L79.1859 94.5675L78.6943 95.1669ZM72.3714 88.9782L69.355 92.6557C68.6702 92.247 68.0141 91.7871 67.3898 91.275C66.5752 90.6069 65.8371 89.8684 65.1747 89.0664L68.1123 85.4848L72.3714 88.9782ZM65.5569 83.3888L63.2585 86.191C62.4815 84.7302 61.8868 83.1318 61.471 81.4216L62.1497 80.5942L65.5569 83.3888ZM60.7442 74.4115C60.7775 72.4233 60.9913 70.353 61.3816 68.2275L65.3492 71.4818L62.0606 75.4912L60.7442 74.4115ZM63.9604 59.2774C64.0261 59.1084 64.0928 58.9394 64.1605 58.7702L64.2896 58.876L63.9604 59.2774ZM84.2077 93.6564L85.2276 94.4929C87.1708 94.0713 89.1593 93.4567 91.1673 92.6581L87.4963 89.647L84.2077 93.6564ZM109.109 77.1941L111.038 78.7758C112.277 77.4824 113.487 76.1199 114.659 74.6911C114.877 74.4256 115.092 74.1593 115.305 73.8922L113.22 72.1824L109.109 77.1941ZM115.686 69.1753L117.645 70.7821C118.932 68.9706 120.106 67.1335 121.166 65.2863L119.797 64.1636L115.686 69.1753ZM125.463 52.0441L127.359 49.7321C127.657 48.3937 127.886 47.0741 128.046 45.7797L125.314 43.5391L121.204 48.5508L125.463 52.0441ZM123.032 61.7869C123.61 60.6151 124.142 59.4431 124.627 58.2749L122.263 61.1566L123.032 61.7869ZM106.643 80.2012L108.252 81.5211C106.603 83.0547 104.914 84.4703 103.202 85.7621L102.532 85.2129L106.643 80.2012ZM68.0233 80.3818L64.6161 77.5872L67.9046 73.5778L71.3118 76.3724L68.0233 80.3818ZM74.8378 85.9711L70.5787 82.4778L73.8673 78.4684L78.1263 81.9617L74.8378 85.9711ZM81.6523 91.5604L77.3932 88.0671L80.6818 84.0577L84.9408 87.551L81.6523 91.5604ZM94.2217 90.1333L97.5103 86.1239L93.2512 82.6306L89.9627 86.64L94.2217 90.1333ZM87.4072 84.544L90.6958 80.5346L86.4367 77.0413L83.1482 81.0507L87.4072 84.544ZM80.5927 78.9547L83.8813 74.9453L79.6222 71.452L76.3337 75.4614L80.5927 78.9547ZM73.7782 73.3654L77.0668 69.356L73.6595 66.5613L70.371 70.5707L73.7782 73.3654ZM67.8156 68.4747L71.1041 64.4653L66.845 60.972L63.5565 64.9814L67.8156 68.4747ZM66.756 55.869L65.7899 55.0766C66.7217 53.1443 67.7795 51.211 68.9609 49.2942L70.8667 50.8573L66.756 55.869ZM73.5705 61.4583L69.3114 57.965L73.4221 52.9533L77.6812 56.4466L73.5705 61.4583ZM79.5332 66.3489L76.1259 63.5543L80.2366 58.5426L83.6438 61.3372L79.5332 66.3489ZM86.3477 71.9383L82.0886 68.4449L86.1993 63.4332L90.4583 66.9266L86.3477 71.9383ZM93.1622 77.5276L88.9031 74.0343L93.0138 69.0226L97.2728 72.5159L93.1622 77.5276ZM99.9767 83.1169L95.7176 79.6236L99.8283 74.6119L104.087 78.1052L99.9767 83.1169ZM106.554 75.0981L110.664 70.0864L106.405 66.5931L102.295 71.6048L106.554 75.0981ZM99.7392 69.5088L103.85 64.4971L99.5909 61.0038L95.4802 66.0155L99.7392 69.5088ZM92.9247 63.9195L97.0354 58.9078L92.7763 55.4144L88.6657 60.4262L92.9247 63.9195ZM86.1102 58.3302L90.2209 53.3184L86.8137 50.5238L82.703 55.5355L86.1102 58.3302ZM80.1476 53.4395L84.2583 48.4278L79.9992 44.9345L75.8885 49.9462L80.1476 53.4395ZM73.3331 47.8502L77.4438 42.8385L75.0626 40.8854C74.8423 41.1463 74.6233 41.4095 74.4055 41.675C73.2336 43.1038 72.1341 44.5566 71.1082 46.0253L73.3331 47.8502ZM77.6547 37.9815C79.1795 36.3655 80.7514 34.8545 82.3556 33.4538L84.0208 34.8197L79.9102 39.8314L77.6547 37.9815ZM86.4872 31.8127L85.4223 30.9392C86.8094 29.8731 88.213 28.8883 89.6244 27.9879L86.4872 31.8127ZM94.7976 26.8922L97.1638 24.0074C98.1606 23.5897 99.1534 23.2169 100.139 22.89L103.167 25.3738L99.0567 30.3855L94.7976 26.8922ZM86.7247 45.4207L82.4656 41.9274L86.5763 36.9157L90.8353 40.409L86.7247 45.4207ZM92.6873 50.3114L89.2801 47.5167L93.3908 42.505L96.798 45.2996L92.6873 50.3114ZM99.5018 55.9007L95.2428 52.4074L99.3534 47.3956L103.613 50.889L99.5018 55.9007ZM106.316 61.49L102.057 57.9967L106.168 52.985L110.427 56.4783L106.316 61.49ZM113.131 67.0793L108.872 63.586L112.982 58.5743L117.242 62.0676L113.131 67.0793ZM119.708 59.0606L122.996 55.0512L118.737 51.5578L115.449 55.5672L119.708 59.0606ZM112.893 53.4712L116.182 49.4618L111.923 45.9685L108.634 49.9779L112.893 53.4712ZM106.079 47.8819L109.367 43.8725L105.108 40.3792L101.82 44.3886L106.079 47.8819ZM99.2644 42.2926L102.553 38.2832L99.1457 35.4886L95.8572 39.498L99.2644 42.2926ZM93.3017 37.402L96.5903 33.3926L92.3312 29.8992L89.0427 33.9086L93.3017 37.402ZM105.019 35.2762L101.612 32.4815L105.723 27.4698L109.13 30.2645L105.019 35.2762ZM111.834 40.8655L107.575 37.3722L111.685 32.3605L115.944 35.8538L111.834 40.8655ZM118.648 46.4548L114.389 42.9615L118.5 37.9498L122.759 41.4431L118.648 46.4548ZM128.289 39.9122C128.306 40.2638 128.317 40.6183 128.322 40.9758L127.781 40.5321L128.289 39.9122ZM127.703 35.4156C127.337 33.7637 126.808 32.2117 126.114 30.7817L125.077 29.931L120.966 34.9428L125.225 38.4361L127.703 35.4156ZM118.411 32.8468L122.522 27.835L118.263 24.3416L114.152 29.3534L118.411 32.8468ZM111.596 27.2574L115.707 22.2456L115.225 21.8504C113.834 21.4877 112.372 21.2775 110.854 21.2143L108.189 24.4628L111.596 27.2574ZM105.634 22.3668L104.796 21.6799C105.337 21.5796 105.874 21.4947 106.406 21.4252L105.634 22.3668Z" fill="#FFA55A"/>
<circle cx="18" cy="47" r="13" fill="#FFA359"/>
</svg>
